<svg width="24" height="24" viewBox="0 0 24 24" fill="none" xmlns="http://www.w3.org/2000/svg">
<path fill-rule="evenodd" clip-rule="evenodd" d="M3.80117 11.968C3.80117 7.45784 7.45735 3.80166 11.9675 3.80166C16.4776 3.80166 20.1338 7.45784 20.1338 11.968C20.1338 16.4781 16.4776 20.1343 11.9675 20.1343C7.45735 20.1343 3.80117 16.4781 3.80117 11.968ZM11.9675 2.31982C6.63896 2.31982 2.31934 6.63945 2.31934 11.968C2.31934 17.2965 6.63896 21.6161 11.9675 21.6161C17.296 21.6161 21.6156 17.2965 21.6156 11.968C21.6156 6.63945 17.296 2.31982 11.9675 2.31982ZM16.9474 9.21509C17.2378 9.50551 17.2378 9.97637 16.9474 10.2668L11.7515 15.4627C11.4611 15.7531 10.9902 15.7531 10.6998 15.4627C10.6887 15.4516 10.6781 15.4403 10.6679 15.4287L7.73177 12.4926C7.4419 12.2027 7.4419 11.7327 7.73177 11.4429C8.02165 11.153 8.49162 11.153 8.7815 11.4429L11.2247 13.8861L15.8957 9.21509C16.1861 8.92467 16.657 8.92467 16.9474 9.21509Z" fill="#2D71F7"/>
</svg>
