<svg width="24" height="24" viewBox="0 0 24 24" fill="none" xmlns="http://www.w3.org/2000/svg">
<path fill-rule="evenodd" clip-rule="evenodd" d="M11.968 3.80166C7.45784 3.80166 3.80166 7.45784 3.80166 11.968C3.80166 16.4781 7.45784 20.1343 11.968 20.1343C16.4781 20.1343 20.1343 16.4781 20.1343 11.968C20.1343 7.45784 16.4781 3.80166 11.968 3.80166ZM2.31982 11.968C2.31982 6.63945 6.63945 2.31982 11.968 2.31982C17.2965 2.31982 21.6161 6.63945 21.6161 11.968C21.6161 17.2965 17.2965 21.6161 11.968 21.6161C6.63945 21.6161 2.31982 17.2965 2.31982 11.968ZM11.9677 17.9048C12.7876 17.9048 13.4523 17.2401 13.4523 16.4203C13.4523 15.6004 12.7876 14.9357 11.9677 14.9357C11.1479 14.9357 10.4832 15.6004 10.4832 16.4203C10.4832 17.2401 11.1479 17.9048 11.9677 17.9048ZM10.5005 7.50169C10.5005 7.63035 10.8691 11.2897 11.0349 12.7594C11.0695 13.0712 11.4134 13.4522 11.9677 13.4522C12.5219 13.4522 12.8683 13.0637 12.9005 12.7594C13.0638 11.2897 13.4473 7.60313 13.4473 7.50169C13.4473 6.69014 12.7867 6.02953 11.9726 6.02953C11.1611 6.02953 10.5005 6.69014 10.5005 7.50169Z" fill="#FF3636"/>
</svg>
